<svg xmlns="http://www.w3.org/2000/svg" viewBox="0 0 841.9 595.3"><g fill="#61DAFB"><path d="M666.3 296.5c0 51.2-90.9 93.2-202.9 93.2s-202.9-42-202.9-93.2 90.9-93.2 202.9-93.2 202.9 42 202.9 93.2zm62.3 0c0-56.4-96.7-102-215.7-102s-215.7 45.6-215.7 102 96.7 102 215.7 102 215.7-45.6 215.7-102z"/><circle cx="420.9" cy="296.5" r="45.7"/><path d="M520.5 78.1c-1.5 0-3 0-4.5.1-24.8.6-49.1 4.5-72.7 11.5-26-48.8-53.2-77.1-80.2-77.1-27.2 0-54.4 28.4-80.4 77.4-23.5-7.2-47.7-11.1-72.4-11.5-1.6 0-3.1-.1-4.6-.1C60.5 78.1 0 138.6 0 215.5c0 75.1 59.8 136.2 134.3 137.3 1.5 0 3-.1 4.5-.1 24.8-.6 49.1-4.5 72.7-11.5 26 48.8 53.2 77.1 80.2 77.1 27.2 0 54.4-28.4 80.4-77.4 23.5 7.2 47.7 11.1 72.4 11.5 1.6 0 3.1.1 4.6.1 74.3-1.1 134.3-62.2 134.3-137.3 0-76.9-60.5-137.4-135-137.4zm-3.5 18.3c68 4.5 122.2 62.7 122.2 133.2 0 71.2-55.6 129.7-124.5 133.1-23.7-49.3-51.4-77.8-79.9-77.8s-56.2 28.6-79.9 77.8c-68.8-3.4-124.4-61.9-124.4-133.1 0-70.5 54.2-128.7 122.2-133.2 23.7 49.3 51.4 77.8 79.9 77.8s56.2-28.6 79.9-77.8zm-96.1 94c-16.1 0-32.1-6.2-44.2-17.7-12.2-11.6-18.9-27-18.9-43.2 0-32.1 26.1-58.2 58.2-58.2s58.2 26.1 58.2 58.2c0 16.2-6.6 31.7-18.9 43.2-12.2 11.5-28.2 17.7-44.2 17.7z"/></g></svg>